# xmcd
#
# Track frame offsets: 
#        150
#        17128
#        32090
#        46160
#        62740
#        80763
#        99370
#        110880
#        123078
#        141588
#
# Disc length: 2126 seconds
#
# Revision: 5
# Processed by: cddbd v1.5.2PL0 Copyright (c) Steve Scherf et al.
# Submitted via: ExactAudioCopy v0.99pb4
#
DISCID=88084c0a
DTITLE=Oak Ridge Boys - Greatest Hits 2
DYEAR=1984
DGENRE=Country
TTITLE0=Elvira
TTITLE1=Ozark Mountain Jubilee
TTITLE2=Love Song
TTITLE3=Fancy Free
TTITLE4=Everyday
TTITLE5=Beautiful You
TTITLE6=Thank God For Kids
TTITLE7=American Made
TTITLE8=Make My Life With You
TTITLE9=I Guess It Never Hurts To Hurt Sometimes
EXTD=
EXTT0=D Frazier
EXTT1=R Murrah - S Anders
EXTT2=S Runkle
EXTT3=J Hinson - R August
EXTT4=D Loggins - J D Martin
EXTT5=D Hanner
EXTT6=E Raven
EXTT7=B Dipiero - P McManus
EXTT8=G Burr
EXTT9=R VanWarmer
PLAYORDER=
